<svg xmlns="http://www.w3.org/2000/svg" viewBox="0 0 1200 800" width="1200" height="800"><path fill="#FFF" d="M0 0h1200v800H0z"/><g transform="translate(355.0 381.0) rotate(0.0 35.0 40.0) scale(1.0 1.0)"><svg width="70" height="80" viewBox="0 0 70 80"><clipPath id="a"><path fill="#970022" d="m34.64 0 34.64 20v40L34.64 80 0 60V20L34.64 0"/></clipPath><path fill="#970022" d="m34.64 0 34.64 20v40L34.64 80 0 60V20L34.64 0" clip-path="url(#a)"/></svg></g><g transform="translate(236.0 491.0) rotate(-30.468388294488168 25.0 28.5) scale(1.0 1.0)"><svg width="50" height="57" viewBox="0 0 50 57"><clipPath id="b"><path fill="#970022" d="m24.712 0 24.712 14.268v28.536L24.712 57.07 0 42.804V14.268L24.712 0" stroke-width="50" stroke="#78001C"/></clipPath><path fill="#970022" d="m24.712 0 24.712 14.268v28.536L24.712 57.07 0 42.804V14.268L24.712 0" stroke-width="50" stroke="#78001C" clip-path="url(#b)"/></svg></g></svg>